<svg xmlns="http://www.w3.org/2000/svg" width="23" height="48" viewBox="0.043 0 23 48"><path fill="#FFF" stroke="#A8ACAD" stroke-width=".5" d="M.293 0c0 3.195 1.14 7.348 4.25 7.042s6.594-4.612 11.618-4.225c8.854.682 7.616 15.843 0 15.843-5.624 0-8.075-4.576-12.322-4.576S.293 20.856.293 23.414"/><path fill="#C03F31" stroke="#A8ACAD" stroke-width=".5" d="M.293 24.58c0 3.193 1.14 7.348 4.25 7.041s6.594-4.612 11.618-4.225c8.854.682 7.616 15.843 0 15.843-5.624 0-8.075-4.576-12.322-4.576S.293 45.435.293 47.993"/><path fill="#FFF" stroke="#ECF0F1" stroke-width=".5" d="M.293 0c0 3.195 1.14 7.348 4.25 7.042s6.594-4.612 11.618-4.225c8.854.682 7.616 15.843 0 15.843-5.624 0-8.075-4.576-12.322-4.576S.293 20.856.293 23.414"/><path fill="#DC8640" stroke="#ECF0F1" stroke-width=".5" d="M.293 24.58c0 3.193 1.14 7.348 4.25 7.041s6.594-4.612 11.618-4.225c8.854.682 7.616 15.843 0 15.843-5.624 0-8.075-4.576-12.322-4.576S.293 45.435.293 47.993"/></svg>