<?xml version="1.0" encoding="utf-8"?>
<!-- Generator: Adobe Illustrator 13.0.0, SVG Export Plug-In . SVG Version: 6.00 Build 14948)  -->
<!DOCTYPE svg PUBLIC "-//W3C//DTD SVG 1.1//EN" "http://www.w3.org/Graphics/SVG/1.1/DTD/svg11.dtd">
<svg version="1.1" id="Layer_1" xmlns="http://www.w3.org/2000/svg" xmlns:xlink="http://www.w3.org/1999/xlink" x="0px" y="0px"
	 width="23px" height="48px" viewBox="0.043 0 23 48" enable-background="new 0.043 0 23 48" xml:space="preserve">
<path fill="#FFFFFF" stroke="#A8ACAD" stroke-width="0.5" d="M0.293,0c0,3.195,1.14,7.348,4.25,7.042s6.594-4.612,11.618-4.225
	c8.854,0.682,7.616,15.843,0,15.843c-5.624,0-8.075-4.576-12.322-4.576s-3.546,6.772-3.546,9.33"/>
<path fill="#C03F31" stroke="#A8ACAD" stroke-width="0.5" d="M0.293,24.58c0,3.193,1.14,7.348,4.25,7.041s6.594-4.612,11.618-4.225
	c8.854,0.682,7.616,15.843,0,15.843c-5.624,0-8.075-4.576-12.322-4.576s-3.546,6.772-3.546,9.33"/>
<path fill="#FFFFFF" stroke="#ECF0F1" stroke-width="0.5" d="M0.293,0c0,3.195,1.14,7.348,4.25,7.042s6.594-4.612,11.618-4.225
	c8.854,0.682,7.616,15.843,0,15.843c-5.624,0-8.075-4.576-12.322-4.576s-3.546,6.772-3.546,9.33"/>
<path fill="#DC8640" stroke="#ECF0F1" stroke-width="0.5" d="M0.293,24.58c0,3.193,1.14,7.348,4.25,7.041s6.594-4.612,11.618-4.225
	c8.854,0.682,7.616,15.843,0,15.843c-5.624,0-8.075-4.576-12.322-4.576s-3.546,6.772-3.546,9.33"/>
</svg>
